<svg width="25" height="24" viewBox="0 0 25 24" fill="none" xmlns="http://www.w3.org/2000/svg">
<path d="M12.5 0C19.1276 0 24.5 5.3724 24.5 12C24.5 18.6276 19.1276 24 12.5 24C10.3793 24.0034 8.296 23.4422 6.46401 22.374L0.504817 24L2.12722 18.0384C1.05813 16.2058 0.496474 14.1216 0.500017 12C0.500017 5.3724 5.87241 0 12.5 0ZM8.41041 6.36L8.17041 6.3696C8.01504 6.37906 7.86319 6.41988 7.72401 6.4896C7.59384 6.56331 7.47501 6.65547 7.37121 6.7632C7.22721 6.8988 7.14561 7.0164 7.05801 7.1304C6.61416 7.70748 6.37518 8.41597 6.37881 9.14399C6.38121 9.73199 6.53481 10.3044 6.77481 10.8396C7.26561 11.922 8.07321 13.068 9.13881 14.13C9.39561 14.3856 9.64761 14.6424 9.91881 14.8812C11.2429 16.0469 12.8207 16.8876 14.5268 17.3364L15.2084 17.4408C15.4304 17.4528 15.6524 17.436 15.8756 17.4252C16.2251 17.4071 16.5663 17.3125 16.8752 17.148C17.0324 17.067 17.1857 16.979 17.3348 16.884C17.3348 16.884 17.3864 16.8504 17.4848 16.776C17.6468 16.656 17.7464 16.5708 17.8808 16.4304C17.9804 16.3272 18.0668 16.206 18.1328 16.068C18.2264 15.8724 18.32 15.4992 18.3584 15.1884C18.3872 14.9508 18.3788 14.8212 18.3752 14.7408C18.3704 14.6124 18.2636 14.4792 18.1472 14.4228L17.4488 14.1096C17.4488 14.1096 16.4048 13.6548 15.7664 13.3644C15.6996 13.3352 15.628 13.3185 15.5552 13.3152C15.4731 13.3068 15.3901 13.316 15.3119 13.3423C15.2337 13.3686 15.162 13.4113 15.1016 13.4676C15.0956 13.4652 15.0152 13.5336 14.1476 14.5848C14.0978 14.6517 14.0292 14.7023 13.9506 14.7301C13.8719 14.7578 13.7868 14.7616 13.706 14.7408C13.6278 14.7198 13.5512 14.6934 13.4768 14.6616C13.328 14.5992 13.2764 14.5752 13.1744 14.532C12.4857 14.2314 11.848 13.8254 11.2844 13.3284C11.1332 13.1964 10.9928 13.0524 10.8488 12.9132C10.3767 12.4611 9.96528 11.9496 9.62481 11.3916L9.55401 11.2776C9.50316 11.201 9.46204 11.1184 9.43161 11.0316C9.38601 10.8552 9.50481 10.7136 9.50481 10.7136C9.50481 10.7136 9.79641 10.3944 9.93201 10.2216C10.064 10.0536 10.1756 9.89039 10.2476 9.77399C10.3892 9.54599 10.4336 9.31199 10.3592 9.13079C10.0232 8.30999 9.67521 7.49279 9.31761 6.6816C9.24681 6.5208 9.03681 6.4056 8.84601 6.3828C8.78121 6.3756 8.71641 6.3684 8.65161 6.3636C8.49046 6.35559 8.32897 6.35719 8.16801 6.3684L8.41041 6.36Z" fill="#6C757D"/>
</svg>
